<svg width="54" height="60" viewBox="0 0 54 60" fill="none" xmlns="http://www.w3.org/2000/svg">
<path d="M0 18.2648C0 16.9695 0.627248 15.7543 1.68317 15.0041L16.4832 4.48828C19.1316 2.60647 22.8 4.50006 22.8 7.74899V56C22.8 58.2091 21.0091 60 18.8 60H4C1.79086 60 0 58.2091 0 56V18.2648Z" fill="#85E087"/>
<path d="M53.4 35.6648C53.4 34.3695 52.7728 33.1543 51.7169 32.4041L36.9169 21.8883C34.2684 20.0065 30.6 21.9001 30.6 25.149V56C30.6 58.2092 32.3909 60 34.6 60H49.4C51.6092 60 53.4 58.2092 53.4 56V35.6648Z" fill="#5943A6"/>
<circle cx="11.4" cy="48.6" r="4.2" fill="#0F1837"/>
<circle cx="39" cy="48.6" r="4.2" fill="#0F1837"/>
</svg>
